<svg width="19" height="11" viewBox="0 0 19 11" fill="none" xmlns="http://www.w3.org/2000/svg">
<path d="M0.853995 1.81773C0.811487 1.69079 0.794902 1.5566 0.805222 1.42313C0.815542 1.28965 0.852557 1.15961 0.914073 1.04071C0.975589 0.921802 1.06035 0.816462 1.16334 0.73093C1.26633 0.645397 1.38544 0.581414 1.51361 0.542774C1.64179 0.504133 1.77642 0.491623 1.90952 0.505984C2.04262 0.520345 2.17148 0.561285 2.28847 0.626376C2.40545 0.691468 2.50817 0.779387 2.59054 0.884919C2.67291 0.99045 2.73326 1.11145 2.768 1.24073C4.854 8.22673 14.75 8.22773 16.838 1.24474C16.8754 1.1188 16.9373 1.00146 17.0201 0.899435C17.1028 0.797407 17.2049 0.71268 17.3204 0.650093C17.4359 0.587507 17.5626 0.548286 17.6933 0.534669C17.824 0.521053 17.9561 0.533308 18.082 0.570734C18.2079 0.608161 18.3253 0.670027 18.4273 0.752799C18.5293 0.835571 18.614 0.937629 18.6766 1.05314C18.7392 1.16866 18.7784 1.29537 18.7921 1.42605C18.8057 1.55672 18.7934 1.6888 18.756 1.81473C18.3922 3.06592 17.7751 4.22898 16.943 5.23173L18.218 6.50773C18.4002 6.69634 18.5009 6.94894 18.4987 7.21114C18.4964 7.47333 18.3912 7.72414 18.2058 7.90955C18.0204 8.09496 17.7696 8.20013 17.5074 8.20241C17.2452 8.20469 16.9926 8.10389 16.804 7.92173L15.493 6.61073C14.7854 7.14425 14.0039 7.57174 13.173 7.87973L13.53 9.21474C13.5681 9.34279 13.5801 9.47717 13.5654 9.60995C13.5507 9.74273 13.5095 9.87122 13.4443 9.98782C13.3791 10.1044 13.2912 10.2068 13.1858 10.2889C13.0804 10.3709 12.9596 10.431 12.8306 10.4657C12.7016 10.5003 12.5669 10.5087 12.4346 10.4904C12.3022 10.4721 12.1749 10.4275 12.0601 10.3591C11.9453 10.2908 11.8453 10.2002 11.7661 10.0926C11.6869 9.98502 11.6301 9.86265 11.599 9.73273L11.235 8.37573C10.288 8.51573 9.32 8.51573 8.373 8.37573L8.009 9.73273C7.97788 9.86265 7.92104 9.98502 7.84185 10.0926C7.76265 10.2002 7.6627 10.2908 7.5479 10.3591C7.4331 10.4275 7.30577 10.4721 7.17343 10.4904C7.0411 10.5087 6.90644 10.5003 6.77741 10.4657C6.64837 10.431 6.52759 10.3709 6.42217 10.2889C6.31676 10.2068 6.22886 10.1044 6.16367 9.98782C6.09847 9.87122 6.0573 9.74273 6.04258 9.60995C6.02787 9.47717 6.03991 9.34279 6.078 9.21474L6.43499 7.87973C5.60405 7.57141 4.82249 7.14358 4.11499 6.60974L2.80499 7.92173C2.61749 8.10951 2.36307 8.2151 2.0977 8.21529C1.83234 8.21548 1.57777 8.11024 1.38999 7.92273C1.20222 7.73523 1.09663 7.48081 1.09644 7.21544C1.09625 6.95008 1.20149 6.69551 1.38899 6.50773L2.664 5.23274C1.88 4.29674 1.254 3.15873 0.851995 1.81873L0.853995 1.81773Z" fill="#24293D"/>
</svg>
